<?xml version="1.0" encoding="UTF-8"?>
<svg width="187px" height="116px" viewBox="0 0 187 116" version="1.1" xmlns="http://www.w3.org/2000/svg" xmlns:xlink="http://www.w3.org/1999/xlink">
    <!-- Generator: Sketch 49.3 (51167) - http://www.bohemiancoding.com/sketch -->
    <title>Page 1</title>
    <desc>Created with Sketch.</desc>
    <defs>
        <polygon id="path-1" points="0.965190466 0.78837967 150.911535 0.78837967 150.911535 14.3846154 0.965190466 14.3846154"></polygon>
        <polygon id="path-3" points="0 115.20022 187 115.20022 187 0 0 0"></polygon>
    </defs>
    <g id="WebApp" stroke="none" stroke-width="1" fill="none" fill-rule="evenodd">
        <g id="EU_dWeb_Homepage_Interrail-Link_Illu-Copy" transform="translate(-627.000000, -3193.000000)">
            <g id="Page-1" transform="translate(627.000000, 3193.000000)">
                <path d="M185.972527,115.093876 L1.02747253,115.093876 C0.460307692,115.093876 0,114.634596 0,114.066404 C0,113.498212 0.460307692,113.038931 1.02747253,113.038931 L185.972527,113.038931 C186.539692,113.038931 187,113.498212 187,114.066404 C187,114.634596 186.539692,115.093876 185.972527,115.093876" id="Fill-1" fill="#072456"></path>
                <path d="M144.952434,102.684885 L152.143714,102.662281 L151.941302,34.8069676 C151.926917,30.0641544 148.192054,26.2316819 143.60028,26.2460665 L38.830961,26.5789676 C34.2381588,26.5933522 30.526928,30.4494566 30.5413126,35.1922698 L30.7437247,103.047583 L37.9339775,103.024979" id="Fill-3" fill="#F2F7FF"></path>
                <path d="M29.7189236,104.077624 L29.5134291,35.1958659 C29.498017,29.8951352 33.6757203,25.5684484 38.8274676,25.5509813 L143.596786,25.2191077 L143.62761,25.2191077 C146.118204,25.2191077 148.458786,26.2147286 150.222957,28.0251352 C151.986099,29.8345143 152.961171,32.2418824 152.968363,34.8033714 L153.173858,103.686157 L144.956132,103.712871 L144.94894,101.657926 L151.112748,101.637377 L150.913418,34.8095363 C150.907253,32.7843879 150.139731,30.8845912 148.751616,29.4594868 C147.37172,28.0436297 145.544874,27.2699429 143.602951,27.2740527 L38.8336324,27.6059264 C34.8151874,27.6192835 31.5560445,31.0212451 31.5683742,35.1897011 L31.7677038,102.016514 L37.9315115,101.99802 L37.9376764,104.052965 L29.7189236,104.077624 Z" id="Fill-5" fill="#072456"></path>
                <path d="M152.1432,53.3431885 L151.940788,34.8065566 C151.927431,30.0647709 148.192568,26.2312709 143.599766,26.246683 L38.8304473,26.5785566 C34.2386725,26.5939687 30.5264143,30.4500731 30.5407989,35.1928863 L30.743211,53.7284907" id="Fill-7" fill="#FFFFFF"></path>
                <path d="M29.715944,53.7394846 L29.5135319,35.2038802 C29.4981198,29.8949297 33.6758231,25.5682429 38.8275703,25.5507758 L143.596889,25.2189022 L143.627713,25.2189022 C146.118307,25.2189022 148.458889,26.2145231 150.223059,28.0259571 C151.986202,29.8343088 152.961274,32.2416769 152.968466,34.8031659 L153.170878,53.3326055 L151.115933,53.3541824 L150.913521,34.8175505 C150.907356,32.7841824 150.139834,30.8843857 148.751719,29.4592813 C147.371823,28.0434242 145.544977,27.2697374 143.603054,27.2738473 L38.8337352,27.6057209 C34.8152901,27.619078 31.5561473,31.022067 31.5684769,35.1894956 L31.770889,53.7179077 L29.715944,53.7394846 Z" id="Fill-9" fill="#072456"></path>
                <path d="M152.042405,37.484561 L151.940685,34.8069676 C151.927328,30.0641544 148.192465,26.2316819 143.599663,26.2460665 L38.8303445,26.5789676 C34.2385698,26.5933522 30.5263115,30.4494566 30.5417236,35.1932973 L30.6424159,37.8698632 L152.042405,37.484561 Z" id="Fill-11" fill="#01C3A7"></path>
                <path d="M143.626891,27.2740527 L143.603259,27.2740527 L38.8339407,27.6059264 C34.8154956,27.6192835 31.5563527,31.0212451 31.5686824,35.1897011 L31.6313582,36.839822 L150.975375,36.4596571 L150.913726,34.8454978 C150.907562,32.7843879 150.14004,30.8845912 148.750897,29.4594868 C147.377166,28.0497945 145.55854,27.2740527 143.626891,27.2740527 Z M30.6419022,38.8978495 C30.0901495,38.8978495 29.6360066,38.4611736 29.6154571,37.9094209 L29.5137374,35.2318275 C29.4972978,29.8951352 33.6760286,25.5684484 38.8267484,25.5509813 L143.596067,25.2191077 L143.626891,25.2191077 C146.117485,25.2191077 148.459095,26.2147286 150.223265,28.0251352 C151.986408,29.8345143 152.960452,32.2418824 152.968671,34.8033714 L153.069364,37.4450033 C153.079638,37.7244758 152.976891,37.9957286 152.783726,38.1960857 C152.590562,38.3964429 152.324446,38.5115198 152.044974,38.5125473 L30.6460121,38.8978495 L30.6419022,38.8978495 Z" id="Fill-13" fill="#072456"></path>
                <path d="M155.311412,113.79248 L27.4506753,114.172645 C21.9218456,114.189084 17.4256258,109.721634 17.4061038,104.192804 L17.4050764,103.801337 C17.4030214,103.400623 17.7277027,103.072859 18.1294445,103.071831 L165.29228,102.635155 L165.29639,103.742771 C165.314884,109.27571 160.844351,113.77604 155.311412,113.79248" id="Fill-15" fill="#01C3A7"></path>
                <g id="Group-19" transform="translate(15.412088, 100.815604)">
                    <mask id="mask-2" fill="white">
                        <use xlink:href="#path-1"></use>
                    </mask>
                    <g id="Clip-18"></g>
                    <path d="M3.02118022,3.28308297 L3.02118022,3.37350055 C3.03864725,8.31667088 7.06736703,12.3299786 12.0084824,12.3299786 L12.0351967,12.3299786 L139.895933,11.9498137 C142.297136,11.9426214 144.552438,11.0004291 146.244686,9.29687967 C147.93796,7.59333022 148.864741,5.33186319 148.856521,2.93065989 L148.856575,2.84948956 L3.02118022,3.28308297 Z M12.0084824,14.3849236 C5.93817473,14.3849236 0.987812088,9.45511044 0.966235165,3.38172033 L0.965207692,2.9902533 C0.963152747,2.52172582 1.14501538,2.07991264 1.47586154,1.74701154 C1.80568022,1.41411044 2.24646593,1.23019286 2.71499341,1.22916538 L150.904274,0.78837967 L150.911466,2.92244011 C150.921741,5.87334121 149.782274,8.6526544 147.702669,10.7456159 C145.623065,12.8385775 142.852999,13.9955115 139.902098,14.0047588 L12.0413615,14.3849236 L12.0084824,14.3849236 Z" id="Fill-17" fill="#072456" mask="url(#mask-2)"></path>
                </g>
                <path d="M160.39812,50.0239385 L138.668103,50.0239385 C135.04318,50.0239385 132.103581,52.9625099 132.103581,56.5884604 L132.103581,107.00962 C132.103581,110.63557 135.04318,113.575169 138.668103,113.575169 L160.39812,113.575169 C164.02407,113.575169 166.962642,110.63557 166.962642,107.00962 L166.962642,56.5884604 C166.962642,52.9625099 164.02407,50.0239385 160.39812,50.0239385" id="Fill-20" fill="#01C3A7"></path>
                <path d="M138.668103,51.051411 C135.614455,51.051411 133.131054,53.5348121 133.131054,56.5884604 L133.131054,107.00962 C133.131054,110.063268 135.614455,112.547697 138.668103,112.547697 L160.39812,112.547697 C163.451768,112.547697 165.935169,110.063268 165.935169,107.00962 L165.935169,56.5884604 C165.935169,53.5348121 163.451768,51.051411 160.39812,51.051411 L138.668103,51.051411 Z M160.39812,114.602642 L138.668103,114.602642 C134.48218,114.602642 131.076109,111.195543 131.076109,107.00962 L131.076109,56.5884604 C131.076109,52.4015099 134.48218,48.9964659 138.668103,48.9964659 L160.39812,48.9964659 C164.584043,48.9964659 167.990114,52.4015099 167.990114,56.5884604 L167.990114,107.00962 C167.990114,111.195543 164.584043,114.602642 160.39812,114.602642 Z" id="Fill-22" fill="#072456"></path>
                <mask id="mask-4" fill="white">
                    <use xlink:href="#path-3"></use>
                </mask>
                <g id="Clip-25"></g>
                <polygon id="Fill-24" fill="#FFFFFF" mask="url(#mask-4)" points="132.104198 102.958912 166.963258 102.958912 166.963258 60.474978 132.104198 60.474978"></polygon>
                <path d="M133.130643,101.93144 L165.934758,101.93144 L165.934758,61.5024505 L133.130643,61.5024505 L133.130643,101.93144 Z M131.076725,103.986385 L167.990731,103.986385 L167.990731,59.4475055 L131.076725,59.4475055 L131.076725,103.986385 Z" id="Fill-26" fill="#072456" mask="url(#mask-4)"></path>
                <polyline id="Fill-27" fill="#033F85" mask="url(#mask-4)" points="132.363326 103.939121 132.363326 60.5921099 166.702486 60.5921099 166.702486 103.939121"></polyline>
                <polyline id="Fill-28" fill="#FFFFFF" mask="url(#mask-4)" points="132.363326 103.939121 132.363326 72.5683297 166.702486 72.5683297 166.702486 103.939121"></polyline>
                <polygon id="Fill-29" fill="#072456" mask="url(#mask-4)" points="166.69591 103.986282 131.819382 103.752018 131.833767 101.697073 166.710295 101.931337"></polygon>
                <polygon id="Fill-30" fill="#072456" mask="url(#mask-4)" points="166.760127 61.7365088 131.883599 61.5022451 131.897984 59.4473 166.774512 59.6815637"></polygon>
                <path d="M133.130643,101.93144 L165.934758,101.93144 L165.934758,61.5024505 L133.130643,61.5024505 L133.130643,101.93144 Z M131.076725,103.986385 L167.990731,103.986385 L167.990731,59.4475055 L131.076725,59.4475055 L131.076725,103.986385 Z" id="Fill-31" fill="#072456" mask="url(#mask-4)"></path>
                <path d="M159.765505,81.2565346 L138.868769,81.2565346 C138.300576,81.2565346 137.841296,80.7972544 137.841296,80.2290621 C137.841296,79.6608698 138.300576,79.2015896 138.868769,79.2015896 L159.765505,79.2015896 C160.33267,79.2015896 160.792977,79.6608698 160.792977,80.2290621 C160.792977,80.7972544 160.33267,81.2565346 159.765505,81.2565346" id="Fill-32" fill="#072456" mask="url(#mask-4)"></path>
                <path d="M159.765505,88.8040396 L138.868769,88.8040396 C138.300576,88.8040396 137.841296,88.3447593 137.841296,87.776567 C137.841296,87.2083747 138.300576,86.7490945 138.868769,86.7490945 L159.765505,86.7490945 C160.33267,86.7490945 160.792977,87.2083747 160.792977,87.776567 C160.792977,88.3447593 160.33267,88.8040396 159.765505,88.8040396" id="Fill-33" fill="#072456" mask="url(#mask-4)"></path>
                <path d="M159.765505,96.9044275 L138.868769,96.9044275 C138.300576,96.9044275 137.841296,96.4451473 137.841296,95.8769549 C137.841296,95.3087626 138.300576,94.8494824 138.868769,94.8494824 L159.765505,94.8494824 C160.33267,94.8494824 160.792977,95.3087626 160.792977,95.8769549 C160.792977,96.4451473 160.33267,96.9044275 159.765505,96.9044275" id="Fill-34" fill="#072456" mask="url(#mask-4)"></path>
                <path d="M146.712391,67.5000132 L142.289122,67.5000132 C141.721957,67.5000132 141.261649,67.040733 141.261649,66.4725407 C141.261649,65.9043484 141.721957,65.4450681 142.289122,65.4450681 L146.712391,65.4450681 C147.279556,65.4450681 147.739864,65.9043484 147.739864,66.4725407 C147.739864,67.040733 147.279556,67.5000132 146.712391,67.5000132" id="Fill-35" fill="#FFFFFF" mask="url(#mask-4)"></path>
                <path d="M139.805515,66.5417923 C139.805515,67.6319407 138.921889,68.515567 137.832768,68.515567 C136.74262,68.515567 135.858993,67.6319407 135.858993,66.5417923 C135.858993,65.451644 136.74262,64.5680176 137.832768,64.5680176 C138.921889,64.5680176 139.805515,65.451644 139.805515,66.5417923" id="Fill-36" fill="#FFFFFF" mask="url(#mask-4)"></path>
                <path d="M161.847473,67.5000132 L157.424203,67.5000132 C156.857038,67.5000132 156.396731,67.040733 156.396731,66.4725407 C156.396731,65.9043484 156.857038,65.4450681 157.424203,65.4450681 L161.847473,65.4450681 C162.414637,65.4450681 162.874945,65.9043484 162.874945,66.4725407 C162.874945,67.040733 162.414637,67.5000132 161.847473,67.5000132" id="Fill-37" fill="#FFFFFF" mask="url(#mask-4)"></path>
                <path d="M154.940699,66.5417923 C154.940699,67.6319407 154.057073,68.515567 152.967952,68.515567 C151.877804,68.515567 150.994177,67.6319407 150.994177,66.5417923 C150.994177,65.451644 151.877804,64.5680176 152.967952,64.5680176 C154.057073,64.5680176 154.940699,65.451644 154.940699,66.5417923" id="Fill-38" fill="#01C3A7" mask="url(#mask-4)"></path>
                <polygon id="Fill-39" fill="#01C3A7" mask="url(#mask-4)" points="150.798033 72.5241484 163.53972 72.5241484 163.53972 71.247 150.798033 71.247"></polygon>
                <path d="M76.5451621,48.9583467 C79.7488214,43.7839951 80.5440852,37.5010005 78.8384808,31.6587918 C77.9404698,28.584594 77.6455852,25.2525005 78.099728,21.7919731 C79.5176401,10.9757698 88.3549313,2.33780824 99.2009313,1.1726544 C113.624591,-0.376774176 125.817607,10.8843247 125.817607,24.9946049 C125.817607,38.2294786 115.088739,48.9583467 101.852838,48.9583467 C101.741871,48.9583467 101.633986,48.9429346 101.523019,48.9408797 L101.523019,48.9583467 L76.5451621,48.9583467 Z" id="Fill-40" fill="#023F85" mask="url(#mask-4)"></path>
                <path d="M78.3031676,47.9308742 L101.343212,47.9308742 C101.40897,47.9185445 101.474728,47.9164896 101.541514,47.9134071 C101.612409,47.9144346 101.682277,47.919572 101.752146,47.9247093 L101.763448,47.9247093 C114.50719,47.9247093 124.790135,37.6376544 124.790135,24.9946049 C124.790135,18.4948137 122.013904,12.2724401 117.175536,7.92520385 C112.271409,3.51837418 105.923684,1.48603352 99.3108709,2.19396209 C88.9642225,3.30568736 80.4711346,11.604583 79.1179533,21.924517 C78.6966896,25.142561 78.9340357,28.3205335 79.8248544,31.3710995 C81.4503159,36.9358907 80.887261,42.8736544 78.3031676,47.9308742 Z M101.523019,48.9408797 L101.533294,48.9408797 L101.523019,48.9408797 Z M101.852838,49.9858192 C101.785025,49.9858192 101.717212,49.9827368 101.649398,49.9775995 C101.608299,49.9827368 101.566173,49.9858192 101.523019,49.9858192 L76.5451621,49.9858192 C76.1721896,49.9858192 75.8290137,49.7844346 75.6481786,49.4576984 C75.4663159,49.133017 75.4755632,48.7343577 75.6718104,48.4178962 C78.6894973,43.542539 79.484761,37.539017 77.8531346,31.9464841 C76.8811456,28.621583 76.6222225,25.160028 77.0804753,21.6584016 C78.5559258,10.40655 87.8124258,1.36273681 99.0909918,0.151346703 C106.295629,-0.625422527 113.205382,1.5949456 118.548239,6.39632473 C123.821228,11.1340005 126.84508,17.9112093 126.84508,24.9946049 C126.84508,38.7750665 115.634327,49.9858192 101.852838,49.9858192 Z" id="Fill-41" fill="#072456" mask="url(#mask-4)"></path>
                <path d="M92.070683,34.6198648 C91.4942709,33.9735846 91.1439027,33.1146176 91.1439027,32.1755077 L91.1439027,19.5858868 L90.2171225,19.5858868 L90.2171225,20.512667 C90.2171225,21.0253758 89.8020236,21.4394473 89.2893148,21.4394473 C88.7776335,21.4394473 88.3635621,21.0253758 88.3635621,20.512667 L88.3635621,18.6591066 C88.3635621,18.1474253 88.7776335,17.7312989 89.2893148,17.7312989 L91.1439027,17.7312989 L91.1439027,15.6712165 C91.1439027,15.1800846 91.5055731,14.7629308 91.99465,14.6910077 C98.0402984,13.8012165 104.176364,13.8012165 110.222013,14.6910077 C110.710062,14.7629308 111.07276,15.1800846 111.07276,15.6712165 L111.07276,17.7312989 L112.92632,17.7312989 C113.438002,17.7312989 113.853101,18.1474253 113.853101,18.6591066 L113.853101,20.512667 C113.853101,21.0253758 113.438002,21.4394473 112.92632,21.4394473 C112.413612,21.4394473 111.99954,21.0253758 111.99954,20.512667 L111.99954,19.5858868 L111.07276,19.5858868 L111.07276,32.1755077 C111.07276,33.1146176 110.721364,33.9735846 110.144952,34.6198648 L110.144952,36.6789198 C110.144952,37.2203978 109.729853,37.660156 109.218172,37.660156 C108.706491,37.660156 108.291392,37.2203978 108.291392,36.6789198 L108.291392,35.7192604 C108.041716,35.7767989 107.781765,35.8065956 107.513595,35.8065956 L94.7020401,35.8065956 C94.4348973,35.8065956 94.1749467,35.7767989 93.9242434,35.7192604 L93.9242434,36.6789198 C93.9242434,37.2203978 93.5091445,37.660156 92.9974632,37.660156 C92.4857819,37.660156 92.070683,37.2203978 92.070683,36.6789198 L92.070683,34.6198648 Z M108.75509,25.610472 L108.75509,16.4125379 C103.524227,15.699472 98.2286341,15.699472 92.9977714,16.4125379 L92.9977714,19.3644665 L92.9977714,25.610472 L108.75509,25.610472 Z M108.75509,27.4647516 L92.9977714,27.4647516 L92.9977714,32.2794879 C92.9977714,33.2114055 93.6985077,33.9522132 94.5451451,33.9522132 L107.207716,33.9522132 C108.054354,33.9522132 108.75509,33.2114055 108.75509,32.2794879 L108.75509,27.4647516 Z" id="Combined-Shape" fill="#FFFFFF" mask="url(#mask-4)"></path>
                <path d="M97.6319808,30.4768901 C97.6319808,31.115978 97.1131071,31.6358791 96.4740192,31.6358791 C95.8339038,31.6358791 95.3150302,31.115978 95.3150302,30.4768901 C95.3150302,29.8367747 95.8339038,29.3179011 96.4740192,29.3179011 C97.1131071,29.3179011 97.6319808,29.8367747 97.6319808,30.4768901" id="Fill-45" fill="#FFFFFF" mask="url(#mask-4)"></path>
                <path d="M106.901324,30.4768901 C106.901324,31.115978 106.382451,31.6358791 105.742335,31.6358791 C105.103247,31.6358791 104.584374,31.115978 104.584374,30.4768901 C104.584374,29.8367747 105.103247,29.3179011 105.742335,29.3179011 C106.382451,29.3179011 106.901324,29.8367747 106.901324,30.4768901" id="Fill-46" fill="#FFFFFF" mask="url(#mask-4)"></path>
                <path d="M98.1537313,19.5860923 C97.6091709,19.5860923 97.1694126,19.1709934 97.1694126,18.6593121 C97.1694126,18.1476308 97.6091709,17.7315044 98.1537313,17.7315044 L104.062726,17.7315044 C104.606259,17.7315044 105.047045,18.1476308 105.047045,18.6593121 C105.047045,19.1709934 104.606259,19.5860923 104.062726,19.5860923 L98.1537313,19.5860923 Z" id="Fill-47" fill="#FFFFFF" mask="url(#mask-4)"></path>
                <path d="M51.7991027,47.3518934 L46.1921852,47.3518934 C45.4729544,47.3518934 44.88935,46.7693165 44.88935,46.0490582 C44.88935,45.3298275 45.4729544,44.7472505 46.1921852,44.7472505 L51.7991027,44.7472505 C52.5183335,44.7472505 53.1019379,45.3298275 53.1019379,46.0490582 C53.1019379,46.7693165 52.5183335,47.3518934 51.7991027,47.3518934" id="Fill-48" fill="#072456" mask="url(#mask-4)"></path>
                <path d="M43.0434956,46.1368044 C43.0434956,47.5187549 41.9235505,48.6387 40.5416,48.6387 C39.1606769,48.6387 38.0407319,47.5187549 38.0407319,46.1368044 C38.0407319,44.7548538 39.1606769,43.6349088 40.5416,43.6349088 C41.9235505,43.6349088 43.0434956,44.7548538 43.0434956,46.1368044" id="Fill-49" fill="#072456" mask="url(#mask-4)"></path>
                <path d="M70.9848918,47.3518934 L65.3779742,47.3518934 C64.6587434,47.3518934 64.075139,46.7693165 64.075139,46.0490582 C64.075139,45.3298275 64.6587434,44.7472505 65.3779742,44.7472505 L70.9848918,44.7472505 C71.7041225,44.7472505 72.2877269,45.3298275 72.2877269,46.0490582 C72.2877269,46.7693165 71.7041225,47.3518934 70.9848918,47.3518934" id="Fill-50" fill="#072456" mask="url(#mask-4)"></path>
                <path d="M62.2292846,46.1368044 C62.2292846,47.5187549 61.1093396,48.6387 59.727389,48.6387 C58.3464659,48.6387 57.2265209,47.5187549 57.2265209,46.1368044 C57.2265209,44.7548538 58.3464659,43.6349088 59.727389,43.6349088 C61.1093396,43.6349088 62.2292846,44.7548538 62.2292846,46.1368044" id="Fill-51" fill="#01C3A7" mask="url(#mask-4)"></path>
                <polygon id="Fill-52" fill="#01C3A7" mask="url(#mask-4)" points="56.9774615 53.7203736 73.1303571 53.7203736 73.1303571 52.1000495 56.9774615 52.1000495"></polygon>
                <path d="M60.614406,65.3307104 L39.7176698,65.3307104 C39.1494775,65.3307104 38.6901973,64.8714302 38.6901973,64.3032379 C38.6901973,63.7350456 39.1494775,63.2757654 39.7176698,63.2757654 L60.614406,63.2757654 C61.1815709,63.2757654 61.6418786,63.7350456 61.6418786,64.3032379 C61.6418786,64.8714302 61.1815709,65.3307104 60.614406,65.3307104" id="Fill-53" fill="#072456" mask="url(#mask-4)"></path>
                <path d="M60.614406,72.8782154 L39.7176698,72.8782154 C39.1494775,72.8782154 38.6901973,72.4189352 38.6901973,71.8507429 C38.6901973,71.2825505 39.1494775,70.8232703 39.7176698,70.8232703 L60.614406,70.8232703 C61.1815709,70.8232703 61.6418786,71.2825505 61.6418786,71.8507429 C61.6418786,72.4189352 61.1815709,72.8782154 60.614406,72.8782154" id="Fill-54" fill="#072456" mask="url(#mask-4)"></path>
                <path d="M60.614406,80.9786033 L39.7176698,80.9786033 C39.1494775,80.9786033 38.6901973,80.5193231 38.6901973,79.9511308 C38.6901973,79.3829385 39.1494775,78.9236582 39.7176698,78.9236582 L60.614406,78.9236582 C61.1815709,78.9236582 61.6418786,79.3829385 61.6418786,79.9511308 C61.6418786,80.5193231 61.1815709,80.9786033 60.614406,80.9786033" id="Fill-55" fill="#072456" mask="url(#mask-4)"></path>
                <path d="M94.2641313,65.3307104 L73.3673951,65.3307104 C72.7992027,65.3307104 72.3399225,64.8714302 72.3399225,64.3032379 C72.3399225,63.7350456 72.7992027,63.2757654 73.3673951,63.2757654 L94.2641313,63.2757654 C94.8312962,63.2757654 95.2916038,63.7350456 95.2916038,64.3032379 C95.2916038,64.8714302 94.8312962,65.3307104 94.2641313,65.3307104" id="Fill-56" fill="#072456" mask="url(#mask-4)"></path>
                <path d="M94.2641313,72.8782154 L73.3673951,72.8782154 C72.7992027,72.8782154 72.3399225,72.4189352 72.3399225,71.8507429 C72.3399225,71.2825505 72.7992027,70.8232703 73.3673951,70.8232703 L94.2641313,70.8232703 C94.8312962,70.8232703 95.2916038,71.2825505 95.2916038,71.8507429 C95.2916038,72.4189352 94.8312962,72.8782154 94.2641313,72.8782154" id="Fill-57" fill="#072456" mask="url(#mask-4)"></path>
                <path d="M94.2641313,80.9786033 L73.3673951,80.9786033 C72.7992027,80.9786033 72.3399225,80.5193231 72.3399225,79.9511308 C72.3399225,79.3829385 72.7992027,78.9236582 73.3673951,78.9236582 L94.2641313,78.9236582 C94.8312962,78.9236582 95.2916038,79.3829385 95.2916038,79.9511308 C95.2916038,80.5193231 94.8312962,80.9786033 94.2641313,80.9786033" id="Fill-58" fill="#072456" mask="url(#mask-4)"></path>
                <path d="M109.421303,65.3307104 L105.321688,65.3307104 C104.754523,65.3307104 104.294215,64.8714302 104.294215,64.3032379 C104.294215,63.7350456 104.754523,63.2757654 105.321688,63.2757654 L109.421303,63.2757654 C109.988468,63.2757654 110.448776,63.7350456 110.448776,64.3032379 C110.448776,64.8714302 109.988468,65.3307104 109.421303,65.3307104" id="Fill-59" fill="#072456" mask="url(#mask-4)"></path>
                <path d="M109.421303,72.8782154 L105.321688,72.8782154 C104.754523,72.8782154 104.294215,72.4189352 104.294215,71.8507429 C104.294215,71.2825505 104.754523,70.8232703 105.321688,70.8232703 L109.421303,70.8232703 C109.988468,70.8232703 110.448776,71.2825505 110.448776,71.8507429 C110.448776,72.4189352 109.988468,72.8782154 109.421303,72.8782154" id="Fill-60" fill="#072456" mask="url(#mask-4)"></path>
                <path d="M109.421303,80.9786033 L105.321688,80.9786033 C104.754523,80.9786033 104.294215,80.5193231 104.294215,79.9511308 C104.294215,79.3829385 104.754523,78.9236582 105.321688,78.9236582 L109.421303,78.9236582 C109.988468,78.9236582 110.448776,79.3829385 110.448776,79.9511308 C110.448776,80.5193231 109.988468,80.9786033 109.421303,80.9786033" id="Fill-61" fill="#072456" mask="url(#mask-4)"></path>
                <path d="M60.614406,89.2194467 L39.7176698,89.2194467 C39.1494775,89.2194467 38.6901973,88.7601665 38.6901973,88.1919742 C38.6901973,87.6237819 39.1494775,87.1645016 39.7176698,87.1645016 L60.614406,87.1645016 C61.1815709,87.1645016 61.6418786,87.6237819 61.6418786,88.1919742 C61.6418786,88.7601665 61.1815709,89.2194467 60.614406,89.2194467" id="Fill-62" fill="#072456" mask="url(#mask-4)"></path>
                <path d="M60.614406,96.7669516 L39.7176698,96.7669516 C39.1494775,96.7669516 38.6901973,96.3076714 38.6901973,95.7394791 C38.6901973,95.1712868 39.1494775,94.7120066 39.7176698,94.7120066 L60.614406,94.7120066 C61.1815709,94.7120066 61.6418786,95.1712868 61.6418786,95.7394791 C61.6418786,96.3076714 61.1815709,96.7669516 60.614406,96.7669516" id="Fill-63" fill="#072456" mask="url(#mask-4)"></path>
                <path d="M94.2641313,89.2194467 L73.3673951,89.2194467 C72.7992027,89.2194467 72.3399225,88.7601665 72.3399225,88.1919742 C72.3399225,87.6237819 72.7992027,87.1645016 73.3673951,87.1645016 L94.2641313,87.1645016 C94.8312962,87.1645016 95.2916038,87.6237819 95.2916038,88.1919742 C95.2916038,88.7601665 94.8312962,89.2194467 94.2641313,89.2194467" id="Fill-64" fill="#072456" mask="url(#mask-4)"></path>
                <path d="M94.2641313,96.7669516 L73.3673951,96.7669516 C72.7992027,96.7669516 72.3399225,96.3076714 72.3399225,95.7394791 C72.3399225,95.1712868 72.7992027,94.7120066 73.3673951,94.7120066 L94.2641313,94.7120066 C94.8312962,94.7120066 95.2916038,95.1712868 95.2916038,95.7394791 C95.2916038,96.3076714 94.8312962,96.7669516 94.2641313,96.7669516" id="Fill-65" fill="#072456" mask="url(#mask-4)"></path>
                <path d="M109.421303,89.2194467 L105.321688,89.2194467 C104.754523,89.2194467 104.294215,88.7601665 104.294215,88.1919742 C104.294215,87.6237819 104.754523,87.1645016 105.321688,87.1645016 L109.421303,87.1645016 C109.988468,87.1645016 110.448776,87.6237819 110.448776,88.1919742 C110.448776,88.7601665 109.988468,89.2194467 109.421303,89.2194467" id="Fill-66" fill="#072456" mask="url(#mask-4)"></path>
                <path d="M109.421303,96.7669516 L105.321688,96.7669516 C104.754523,96.7669516 104.294215,96.3076714 104.294215,95.7394791 C104.294215,95.1712868 104.754523,94.7120066 105.321688,94.7120066 L109.421303,94.7120066 C109.988468,94.7120066 110.448776,95.1712868 110.448776,95.7394791 C110.448776,96.3076714 109.988468,96.7669516 109.421303,96.7669516" id="Fill-67" fill="#072456" mask="url(#mask-4)"></path>
                <path d="M68.2912698,65.3307104 L65.7328632,65.3307104 C65.1656984,65.3307104 64.7053907,64.8714302 64.7053907,64.3032379 C64.7053907,63.7350456 65.1656984,63.2757654 65.7328632,63.2757654 L68.2912698,63.2757654 C68.8584346,63.2757654 69.3187423,63.7350456 69.3187423,64.3032379 C69.3187423,64.8714302 68.8584346,65.3307104 68.2912698,65.3307104" id="Fill-68" fill="#072456" mask="url(#mask-4)"></path>
                <path d="M68.2912698,72.8782154 L65.7328632,72.8782154 C65.1656984,72.8782154 64.7053907,72.4189352 64.7053907,71.8507429 C64.7053907,71.2825505 65.1656984,70.8232703 65.7328632,70.8232703 L68.2912698,70.8232703 C68.8584346,70.8232703 69.3187423,71.2825505 69.3187423,71.8507429 C69.3187423,72.4189352 68.8584346,72.8782154 68.2912698,72.8782154" id="Fill-69" fill="#072456" mask="url(#mask-4)"></path>
                <path d="M68.2912698,80.9786033 L65.7328632,80.9786033 C65.1656984,80.9786033 64.7053907,80.5193231 64.7053907,79.9511308 C64.7053907,79.3829385 65.1656984,78.9236582 65.7328632,78.9236582 L68.2912698,78.9236582 C68.8584346,78.9236582 69.3187423,79.3829385 69.3187423,79.9511308 C69.3187423,80.5193231 68.8584346,80.9786033 68.2912698,80.9786033" id="Fill-70" fill="#072456" mask="url(#mask-4)"></path>
                <path d="M68.2912698,89.2194467 L65.7328632,89.2194467 C65.1656984,89.2194467 64.7053907,88.7601665 64.7053907,88.1919742 C64.7053907,87.6237819 65.1656984,87.1645016 65.7328632,87.1645016 L68.2912698,87.1645016 C68.8584346,87.1645016 69.3187423,87.6237819 69.3187423,88.1919742 C69.3187423,88.7601665 68.8584346,89.2194467 68.2912698,89.2194467" id="Fill-71" fill="#072456" mask="url(#mask-4)"></path>
                <path d="M68.2912698,96.7669516 L65.7328632,96.7669516 C65.1656984,96.7669516 64.7053907,96.3076714 64.7053907,95.7394791 C64.7053907,95.1712868 65.1656984,94.7120066 65.7328632,94.7120066 L68.2912698,94.7120066 C68.8584346,94.7120066 69.3187423,95.1712868 69.3187423,95.7394791 C69.3187423,96.3076714 68.8584346,96.7669516 68.2912698,96.7669516" id="Fill-72" fill="#072456" mask="url(#mask-4)"></path>
            </g>
        </g>
    </g>
</svg>