<svg width="24" height="18" viewBox="0 0 24 18" xmlns="http://www.w3.org/2000/svg"><rect fill="#E32D2D" width="24" height="18" rx="2"/><path fill="#FFDA12" d="M6.305 10.21l-2.66 1.979 1.058-3.142L2 7.127l3.315.037L6.305 4l.99 3.164 3.315-.036-2.703 1.919 1.059 3.142zM13.094 3.996l-1.11.13.838-.739-.465-1.015.96.569.823-.756-.245 1.09.974.547-1.112.105-.22 1.094zM16.305 7.24l-.614.933-.027-1.116-1.077-.296 1.054-.37-.051-1.116.677.887 1.045-.393-.634.919.697.872zM16.061 11.54l-.896.666.357-1.059-.91-.646 1.116.012.333-1.065.334 1.065 1.116-.012-.91.646.356 1.059zM13.094 14.996l-1.11.13.838-.739-.465-1.015.96.569.823-.756-.245 1.09.974.547-1.112.105-.22 1.094z"/></svg>
