<svg width="68" height="18" viewBox="0 0 68 18" xmlns="http://www.w3.org/2000/svg"><path d="M25.586 4.24a5.03 5.03 0 0 0-1.53-.24C21.26 4 19 6.218 19 9.028c0 2.7 2.26 4.972 5.055 4.972 2.725 0 4.986-2.273 4.986-4.972a4.988 4.988 0 0 0-1.25-3.333l-1.333 1.427a3.1 3.1 0 0 1 .66 1.906c0 1.64-1.405 3.038-3.062 3.038-1.727 0-3.117-1.4-3.117-3.038a3.092 3.092 0 0 1 3.117-3.093l1.53-1.695zM23.1 7.574h2.402l2.95-3.25H26.12l-3.02 3.25zm14.352 1.144c.604-.523.843-1.37.843-1.92 0-.397-.154-2.473-3.398-2.473h-3.89v9.42h4.27c.546 0 1.627-.055 2.246-.607.856-.776 1.01-1.54 1.01-2.004 0-1.173-.533-1.936-1.08-2.416zm9.535 0c.69-.523.843-1.37.843-1.92 0-.397-.154-2.473-3.412-2.473h-3.876v9.42h4.27c.533 0 1.628-.055 2.23-.607.872-.762 1.026-1.54 1.026-2.004 0-1.173-.547-1.936-1.08-2.416zm-14.042-2.77h2.33c.62 0 1.167.24 1.167 1.075 0 .777-.478 1.088-1.32 1.088h-2.177V5.95zm2.246 6.174h-2.245V9.735h2.626c.394 0 1.096 0 1.096 1.087 0 1.3-.843 1.3-1.475 1.3zm9.536 0H42.48V9.735h2.64c.38 0 1.095 0 1.095 1.087 0 1.3-.87 1.3-1.49 1.3zM42.48 5.95h2.33c.62 0 1.152.24 1.152 1.073 0 .777-.463 1.088-1.306 1.088H42.48V5.95z" fill="#CC082A" fill-rule="evenodd"/></svg>