<svg width="24" height="18" viewBox="0 0 24 18" xmlns="http://www.w3.org/2000/svg" xmlns:xlink="http://www.w3.org/1999/xlink"><title>BRAZIL - R</title><defs><rect id="a" width="24" height="18" rx="2"/></defs><g fill="none" fill-rule="evenodd"><mask id="b" fill="#fff"><use xlink:href="#a"/></mask><g mask="url(#b)"><g transform="translate(-1 -1)"><path fill="#5BB066" d="M0 0h26v20H0z"/><circle fill="#015FBC" cx="13" cy="10" r="4"/><path d="M18.118 11.854A11.463 11.463 0 0 0 10 8.5c-.723 0-1.438.067-2.138.198l.185.983A10.56 10.56 0 0 1 10 9.5c2.817 0 5.456 1.114 7.412 3.063l.706-.709z" fill="#FFF" fill-rule="nonzero"/><path d="M3 10.082L13 3l10 7.188L13 17 3 10.082zM13 14a4 4 0 1 0 0-8 4 4 0 0 0 0 8z" fill="#FFC800"/></g></g></g></svg>