<svg xmlns="http://www.w3.org/2000/svg" width="51" height="25" viewBox="0 0 39.45 19.32"><defs><style>.cls-1{isolation:isolate;}.cls-2{fill:#8d847b;}.cls-3{fill:#dce251;}.cls-4{fill:#0083c7;}.cls-5{fill:#00b189;}.cls-6{fill:#c4d413;mix-blend-mode:multiply;}</style></defs><title>westbahn-logo</title><g class="cls-1"><g id="Calque_1" data-name="Calque 1"><path class="cls-2" d="M24.47 16.6a1 1 0 0 0-.14-.45.87.87 0 0 0-.33-.31 1 1 0 0 0-.48-.11h-1.66l-.22.72h1a.49.49 0 0 1 .24.06.44.44 0 0 1 .16.15.49.49 0 0 1 .07.23.76.76 0 0 1 0 .28l-.22.72a1 1 0 0 1-.14.28 1.09 1.09 0 0 1-.21.23 1 1 0 0 1-.26.15.77.77 0 0 1-.28.05h-1.36l1.1-3.6h-2a.5.5 0 0 1 .24.06.43.43 0 0 1 .16.15.52.52 0 0 1 .08.22.63.63 0 0 1 0 .27l-1.11 3.62h3.37a1.44 1.44 0 0 0 .55-.11 2.18 2.18 0 0 0 .52-.31 2.24 2.24 0 0 0 .43-.45 1.87 1.87 0 0 0 .23-.56l.22-.72a1.51 1.51 0 0 0 .06-.56M39.45 16.61a1 1 0 0 0-.14-.45.88.88 0 0 0-.33-.31 1 1 0 0 0-.48-.11h-4a.51.51 0 0 1 .24.06.42.42 0 0 1 .17.15.52.52 0 0 1 .07.23.75.75 0 0 1 0 .28l-.88 2.87h1.33l.88-2.87h1.33a.49.49 0 0 1 .24.06.45.45 0 0 1 .17.15.48.48 0 0 1 .07.23.74.74 0 0 1 0 .28l-.66 2.16h1.33l.66-2.15a1.49 1.49 0 0 0 .06-.56M13.41 16.88a1.1 1.1 0 0 1 .21-.23 1 1 0 0 1 .26-.15.72.72 0 0 1 .28-.06h2.66l.22-.72h-3.33a1.45 1.45 0 0 0-.55.11 2.1 2.1 0 0 0-.52.31 2.28 2.28 0 0 0-.42.45 3.44 3.44 0 0 0-.27.56l-.22.72h3.32a1 1 0 0 1-.14.28 1.1 1.1 0 0 1-.21.23 1 1 0 0 1-.26.15.76.76 0 0 1-.28.05H11.5l-.22.72h3.33a1.44 1.44 0 0 0 .55-.11 2.16 2.16 0 0 0 .52-.31 2.24 2.24 0 0 0 .43-.45 2 2 0 0 0 .28-.56l.22-.72h-3.34a1.1 1.1 0 0 1 .14-.28M8.05 18.54a.43.43 0 0 1-.16-.15.51.51 0 0 1-.07-.23.74.74 0 0 1 0-.28l.22-.72a1 1 0 0 1 .14-.28 1.11 1.11 0 0 1 .21-.23 1 1 0 0 1 .26-.15.72.72 0 0 1 .32-.05h.67a.5.5 0 0 1 .24.06.42.42 0 0 1 .17.15.5.5 0 0 1 .07.23.76.76 0 0 1 0 .28H8.4l-.22.72h3l.22-.72a1.48 1.48 0 0 0 .06-.56 1 1 0 0 0-.14-.45.87.87 0 0 0-.33-.31 1 1 0 0 0-.48-.11h-2a1.45 1.45 0 0 0-.55.11 2.14 2.14 0 0 0-.52.31 2.25 2.25 0 0 0-.43.45 1.86 1.86 0 0 0-.27.56l-.22.72a1.45 1.45 0 0 0-.07.56 1 1 0 0 0 .15.45.91.91 0 0 0 .33.31 1 1 0 0 0 .48.11h3.33l.23-.72H8.3a.52.52 0 0 1-.25-.05M18.22 18.39a.53.53 0 0 1-.07-.23.66.66 0 0 1 0-.28l.43-1.43h.75c0-.1.16-.46.24-.71h-.76l.22-.74h-1.31l-.22.74-.22.71-.43 1.43a1.45 1.45 0 0 0-.07.56 1 1 0 0 0 .15.45.88.88 0 0 0 .33.31 1 1 0 0 0 .48.11h1l.22-.72a2.42 2.42 0 0 1-.53-.06.42.42 0 0 1-.16-.15"/><path class="cls-2" d="M34.4 16.61a1 1 0 0 0-.14-.45.88.88 0 0 0-.33-.31 1 1 0 0 0-.48-.11h-2l.22-.72h-2a.52.52 0 0 1 .24.06.42.42 0 0 1 .17.15.53.53 0 0 1 .07.23.67.67 0 0 1 0 .28l-1.1 3.59h1.33l.88-2.87h1.33a.5.5 0 0 1 .24.06.45.45 0 0 1 .17.15.5.5 0 0 1 .07.23.8.8 0 0 1 0 .28l-.66 2.15h1.33l.66-2.15a1.43 1.43 0 0 0 .07-.56"/><path class="cls-2" d="M27.66 18.15a1.09 1.09 0 0 1-.21.23 1 1 0 0 1-.26.15.73.73 0 0 1-.28.06h-.67a.51.51 0 0 1-.24-.06.41.41 0 0 1-.17-.15.49.49 0 0 1-.07-.23.44.44 0 0 1 0-.19c.07-.32.3-.4.8-.44h1.41l-.14.34a1 1 0 0 1-.14.28m1.76-1.43a1.09 1.09 0 0 0 0-.13 1 1 0 0 0-.15-.45.9.9 0 0 0-.33-.31 1 1 0 0 0-.48-.11h-3.12l-.22.72h2.44a.51.51 0 0 1 .25.06.36.36 0 0 1 .19.32h-1.7a2.17 2.17 0 0 0-1.7.74 1.41 1.41 0 0 0-.16.32 1.73 1.73 0 0 0-.06.56 1 1 0 0 0 .14.45.89.89 0 0 0 .33.31 1 1 0 0 0 .48.11h1.63a1.41 1.41 0 0 0 .44-.22l-.07.21h1.33l.66-2.15a1.63 1.63 0 0 0 .06-.39zM2.35 18.61h-.5a.49.49 0 0 1-.24-.06.44.44 0 0 1-.17-.15.48.48 0 0 1-.07-.23.74.74 0 0 1 0-.28l.66-2.16H.74l-.67 2.16a1.48 1.48 0 0 0-.06.56 1 1 0 0 0 .14.45.87.87 0 0 0 .33.31 1 1 0 0 0 .48.11h4.59"/><path class="cls-2" d="M2.32 18.45a1 1 0 0 0 .14.45.88.88 0 0 0 .33.31 1 1 0 0 0 .48.11h3.05a.51.51 0 0 1-.24-.06.42.42 0 0 1-.17-.15.52.52 0 0 1-.07-.23.75.75 0 0 1 0-.28l.88-2.87h-1.3l-.88 2.87h-.39a.49.49 0 0 1-.24-.06.45.45 0 0 1-.17-.15.48.48 0 0 1-.07-.23.76.76 0 0 1 0-.28l.66-2.16H3.04l-.66 2.15a1.49 1.49 0 0 0-.06.56"/><path class="cls-3" d="M11.15 2.06H6.83l-.99 1.89h3.54L7.23 7.12l.5 2.34h-.99L7.79 12h5.46l-.6-1.44H8.88l-.78-3.8 3.05-4.7z"/><path class="cls-3" d="M19.11 0h-6.63l-1.33 2.06h1.14l-1.77 3.36 2.13 5.14h2.86l-.78-3.41L19.11 0z"/><path class="cls-4" d="M5.84 3.95h-1.3L2.41 7.13l.48 2.33h3.85L5.06 5.42l.78-1.47z"/><path class="cls-5" d="M9.38 3.95H5.84l-.78 1.47 1.68 4.04h.99l-.5-2.34 2.15-3.17z"/><path class="cls-6" d="M12.29 2.06h-1.14L8.1 6.76l.78 3.8h3.77l-2.13-5.14 1.77-3.36z"/></g></g></svg>
