<?xml version="1.0" encoding="UTF-8"?>
<svg width="40px" height="40px" viewBox="0 0 40 40" version="1.1" xmlns="http://www.w3.org/2000/svg" xmlns:xlink="http://www.w3.org/1999/xlink">
    <!-- Generator: Sketch 47.1 (45422) - http://www.bohemiancoding.com/sketch -->
    <title>Group</title>
    <desc>Created with Sketch.</desc>
    <defs></defs>
    <g id="Page-1" stroke="none" stroke-width="1" fill="none" fill-rule="evenodd">
        <g id="Tablet" transform="translate(-444.000000, -267.000000)">
            <g id="Group" transform="translate(444.000000, 267.000000)">
                <circle id="Oval" fill="#21314D" cx="20" cy="20" r="20"></circle>
                <g id="asset-40" transform="translate(9.000000, 9.000000)" stroke="#FFFFFF" fill="#FFFFFF" fill-rule="nonzero">
                    <path d="M19.91,10.124125 L9.8725,20.161625 C9.807875,20.22625 9.74325,20.22625 9.68,20.161625 L2.36775,12.85075 C2.3423284,12.8252591 2.32842117,12.790491 2.32925,12.7545 C2.32925,12.727 2.336125,12.6885 2.36775,12.6555 L12.40525,2.618 C12.560625,2.46675 12.9195,2.32925 13.17525,2.32925 C13.19725,2.32925 13.21925,2.32925 13.2385,2.332 L19.14825,3.056625 C19.28575,3.073125 19.45075,3.24225 19.468625,3.378375 L20.194625,9.290875 C20.224875,9.530125 20.0805,9.950875 19.905875,10.12275 L19.91,10.124125 Z M21.564125,9.120375 L20.840875,3.212 C20.744625,2.451625 20.07775,1.782 19.31875,1.69125 L13.40625,0.966625 C12.74625,0.884125 11.89925,1.17975 11.43175,1.64725 L1.39425,11.68475 C1.109625,11.969375 0.95425,12.35025 0.95425,12.75725 C0.95425,13.1615 1.109625,13.541 1.39425,13.82975 L8.70375,21.13375 C8.98975,21.418375 9.36925,21.5765 9.77625,21.5765 C10.1785913,21.5769993 10.5645508,21.4171725 10.84875,21.132375 L20.8835,11.097625 C21.351,10.630125 21.64525,9.777625 21.564125,9.120375 Z" id="Shape" stroke-width="0.8"></path>
                    <path d="M14.777125,9.603 C14.5277627,9.85414967 14.1884802,9.99539531 13.8345625,9.99539531 C13.4806448,9.99539531 13.1413623,9.85414967 12.892,9.603 C12.6418313,9.35352703 12.5017345,9.01442352 12.502875,8.661125 C12.50104,8.30694547 12.640737,7.96670189 12.8909248,7.71599772 C13.1411126,7.46529355 13.4810674,7.3248953 13.83525,7.326 C14.19275,7.326 14.526875,7.4635 14.779875,7.715125 C15.298346,8.23601625 15.298346,9.07798375 14.779875,9.598875 M13.836625,5.938625 C13.112,5.938625 12.43,6.22325 11.91575,6.736125 C11.4015,7.250375 11.11825,7.932375 11.11825,8.661125 C11.11825,9.38575 11.4015,10.06775 11.91575,10.582 C12.43,11.094875 13.112,11.3795 13.836625,11.3795 C14.5589585,11.3809673 15.2519587,11.0938672 15.761625,10.582 C16.8210354,9.51945247 16.8210354,7.80004753 15.761625,6.7375 C15.2519587,6.22563281 14.5589585,5.93853271 13.836625,5.94" id="Shape" stroke-width="0.3"></path>
                </g>
            </g>
        </g>
    </g>
</svg>