<svg id="logo" viewBox="0 0 271 57" xmlns="http://www.w3.org/2000/svg" fill-rule="evenodd" clip-rule="evenodd" stroke-linejoin="round" stroke-miterlimit="1.414"><path d="M171.861 47.285c-.682.075-1.213.075-1.743.075-2.501 0-4.319-.909-4.319-4.168V.91h-9.927v43.95c0 7.198 4.547 11.442 11.821 11.442 1.592 0 2.728-.152 4.168-.455v-8.563zm33.19-12.958c0-4.319 2.576-7.729 6.971-7.729 4.85 0 6.896 3.258 6.896 7.426v21.747h10.078v-23.49c0-8.184-4.244-14.776-13.488-14.776-4.016 0-8.487 1.742-10.76 5.607V18.49h-9.776v37.281h10.079V34.327zm-79.641 0c0-4.319 2.577-7.729 6.972-7.729 4.849 0 6.895 3.258 6.895 7.426v21.747h10.078v-23.49c0-8.184-4.244-14.776-13.488-14.776-4.016 0-8.487 1.742-10.76 5.607V18.49h-9.775v37.281h10.078V34.327zm50.846-28.038c0 3.335 2.803 6.139 6.214 6.139 3.485-.001 6.213-2.804 6.213-6.139 0-3.485-2.728-6.289-6.213-6.289-3.411 0-6.214 2.804-6.214 6.289m11.29 12.201h-10.078v37.281h10.078V18.49zM96.539 6.289c0 3.335 2.804 6.139 6.214 6.139 3.486-.001 6.214-2.804 6.214-6.139 0-3.485-2.728-6.289-6.214-6.289-3.41 0-6.214 2.804-6.214 6.289M107.83 18.49H97.751v37.281h10.079V18.49zm154.204 24.097c-1.212 3.334-3.788 5.683-8.486 5.683-5.002 0-9.17-3.562-9.397-8.487h26.674c0-.151.151-1.667.151-3.107 0-11.973-6.896-19.323-18.414-19.323-9.547 0-18.337 7.729-18.337 19.627 0 12.578 9.017 19.929 19.246 19.929 9.17-.001 15.08-5.381 16.974-11.822l-8.411-2.501zm-17.656-9.699c.228-3.411 3.108-7.351 8.336-7.351 5.759 0 8.184 3.637 8.335 7.351h-16.671zM72.14 49.331c-3.259-.001-4.85-2.122-4.85-4.32 0-2.879 2.046-4.319 4.622-4.698l8.411-1.288v1.667c0 6.592-3.94 8.638-8.184 8.638m-14.928-3.712c0 5.834 4.85 11.215 12.807 11.215 5.531 0 9.093-2.577 10.987-5.532 0 1.44.152 3.486.379 4.47h9.244c-.227-1.287-.454-3.94-.454-5.91V31.523c0-7.501-4.395-14.17-16.216-14.17-10.003 0-15.382 6.441-15.989 12.276l8.941 1.894c.304-3.258 2.729-6.062 7.124-6.062 4.243 0 6.289 2.197 6.289 4.849 0 1.289-.682 2.35-2.804 2.653l-9.168 1.364c-6.214.91-11.139 4.622-11.139 11.291m-3.79-27.28c-.757-.075-1.515-.151-2.349-.151-3.182 0-8.335.909-10.608 5.835V18.49H30.69v37.281h10.078V38.722c0-8.032 4.47-10.533 9.624-10.533.909 0 1.894.076 3.03.303V18.338zM6.745 29.629v15.155c0 7.198 4.546 11.518 11.82 11.518 3.714 0 5.684-.909 5.684-.909v-8.336c-.531.152-1.895.303-3.107.303-2.88 0-4.395-1.06-4.395-4.319V29.629H6.745zm9.85-13.337c.152-.606.152-1.288.152-2.046V7.351H7.654v5.152c0 1.516-.303 2.88-.985 3.789h9.926zM0 18.49v8.941h3.789c6.744 0 10.836-3.562 12.427-8.941H0zm18.414 0c-.909 3.864-2.652 6.592-6.138 8.941h11.973V18.49h-5.835z" fill="#00b8b0" fill-rule="nonzero"/></svg>