<?xml version="1.0" encoding="UTF-8"?>
<svg width="40px" height="40px" viewBox="0 0 40 40" version="1.1" xmlns="http://www.w3.org/2000/svg" xmlns:xlink="http://www.w3.org/1999/xlink">
    <!-- Generator: Sketch 47.1 (45422) - http://www.bohemiancoding.com/sketch -->
    <title>Group 3</title>
    <desc>Created with Sketch.</desc>
    <defs>
        <polygon id="path-1" points="0 0 24 0 24 19.4285714 0 19.4285714"></polygon>
    </defs>
    <g id="Page-1" stroke="none" stroke-width="1" fill="none" fill-rule="evenodd">
        <g id="Tablet" transform="translate(-444.000000, -388.000000)">
            <g id="Group-3" transform="translate(444.000000, 388.000000)">
                <circle id="Oval" fill="#21314D" cx="20" cy="20" r="20"></circle>
                <g id="asset-42" transform="translate(8.000000, 10.000000)">
                    <mask id="mask-2" fill="white">
                        <use xlink:href="#path-1"></use>
                    </mask>
                    <g id="Shape"></g>
                    <path d="M21.6676651,15.7460168 C21.6676651,13.3704379 21.6712206,10.9948589 21.6658874,8.61927999 C21.6633985,7.59508673 21.7334423,6.55997531 21.0351373,5.67067407 C20.3624321,4.81483169 19.5005731,4.37000498 18.4076049,4.36859618 C15.5141192,4.36577859 12.620278,4.36648299 9.72679229,4.36648299 C7.69089907,4.36648299 5.65500585,4.36824398 3.61911264,4.36930058 L3.08293957,4.36930058 C3.30409318,3.20141032 3.44560305,2.07860147 3.74426709,0.998760844 C3.95155416,0.246817026 4.73270285,-0.103620491 5.54407349,0.0266929577 C9.27737402,0.628248012 13.0099634,1.23755143 16.7425528,1.84544606 C18.6269807,2.15185876 20.510342,2.46320225 22.3951254,2.76714956 C23.6004481,2.96156314 24.1586654,3.7039976 23.9609783,4.9085165 C23.4240941,8.18044065 22.8861433,11.4502516 22.3204594,14.7161884 C22.2543266,15.0976194 22.0104177,15.4487613 21.8489969,15.8143433 L21.6676651,15.7460168 L21.6676651,15.7460168 Z M1.4929091,16.1017373 L1.4929091,16.7497826 C1.4929091,17.7521395 1.72295152,17.9778988 2.74445366,17.9778988 C5.21732081,17.9786032 7.69018797,17.97649 10.1637662,17.9786032 C12.854587,17.9803642 15.5461189,17.9856472 18.2369397,17.9891691 C18.7937348,17.9898735 19.1720426,17.733473 19.2196866,17.2629358 C19.2573752,16.8938318 19.2275088,16.5173316 19.2275088,16.1017373 L1.4929091,16.1017373 L1.4929091,16.1017373 Z M1.49433131,13.5947883 L19.2374643,13.5947883 L19.2374643,13.022818 C19.2385309,11.363963 19.2403087,9.70581239 19.2399531,8.04695742 C19.2399531,7.02628613 19.0383549,6.83011157 17.984853,6.82975937 C14.5146613,6.82870277 11.0444696,6.82905497 7.57498898,6.82905497 C5.83384873,6.82905497 4.09270847,6.822011 2.35192377,6.83609894 C1.83423943,6.84032532 1.50499788,7.13969405 1.50073125,7.63101098 C1.48508695,9.59486986 1.49433131,11.559081 1.49433131,13.5947883 L1.49433131,13.5947883 Z M10.3447424,19.4271957 C7.74209862,19.4271957 5.13945483,19.4307176 2.53681104,19.4264913 C0.931136261,19.4236737 0.0088332557,18.5061966 0.00527773139,16.9001713 C-0.00183331722,13.9797413 0.000299997363,11.0589591 0.000299997363,8.13923342 C0.000299997363,6.14649426 0.989802412,5.25684082 3.00258472,5.35052563 C4.36079501,5.41392136 5.72433858,5.4047642 7.08539328,5.4033554 C10.8684711,5.39701583 14.6508379,5.36003499 18.4332047,5.37517952 C19.7924816,5.3804625 20.7087402,6.34196443 20.7151402,7.69440671 C20.7304289,10.831791 20.7314956,13.9695276 20.717629,17.1069119 C20.7122957,18.4850646 19.7661707,19.4138121 18.3731163,19.4201517 C15.6968731,19.4335352 13.0209856,19.4236737 10.3447424,19.4236737 L10.3447424,19.4271957 L10.3447424,19.4271957 Z" id="Shape" fill="#FFFFFF" fill-rule="nonzero" mask="url(#mask-2)"></path>
                </g>
            </g>
        </g>
    </g>
</svg>